<svg viewBox="0 0 25.244 19.846">
  <path
    d="M19.365,18.346h-15a1.216,1.216,0,0,1-1.189-.975L.024,7.664A1.213,1.213,0,0,1,1.213,6.213H3.088A1.208,1.208,0,0,1,3.434,5.5L8.582.355A1.214,1.214,0,0,1,10.3,2.071L6.156,6.213H17.578L13.436,2.071A1.213,1.213,0,0,1,15.151.355L20.3,5.5a1.194,1.194,0,0,1,.346.711H22.52a1.214,1.214,0,0,1,1.19,1.451l-3.155,9.707A1.217,1.217,0,0,1,19.365,18.346ZM17.327,8.641a.607.607,0,0,0-.606.606v6.067a.607.607,0,0,0,1.213,0V9.247A.607.607,0,0,0,17.327,8.641Zm-3.64,0a.607.607,0,0,0-.607.606v6.067a.607.607,0,0,0,1.213,0V9.247A.607.607,0,0,0,13.687,8.641Zm-3.64,0a.607.607,0,0,0-.607.606v6.067a.607.607,0,0,0,1.213,0V9.247A.607.607,0,0,0,10.047,8.641Zm-3.641,0a.607.607,0,0,0-.606.606v6.067a.607.607,0,0,0,1.213,0V9.247A.607.607,0,0,0,6.407,8.641Z"
  />
</svg>