<svg viewBox="0 0 23.1 17.524">
  <g transform="translate(0.001)">
    <path d="M22.945,128.65a15.844,15.844,0,0,0-11.4-5.543,15.851,15.851,0,0,0-11.4,5.543.679.679,0,0,0,0,.862,15.829,15.829,0,0,0,11.4,5.543,15.86,15.86,0,0,0,11.4-5.543A.679.679,0,0,0,22.945,128.65Zm-6.781.431a4.615,4.615,0,1,1-4.615-4.615A4.62,4.62,0,0,1,16.164,129.081Zm-14.568,0a16.409,16.409,0,0,1,5.2-3.611,5.959,5.959,0,0,0,0,7.22,16.11,16.11,0,0,1-5.2-3.609Zm14.709,3.61a5.959,5.959,0,0,0,0-7.22,16.113,16.113,0,0,1,5.2,3.609A16.409,16.409,0,0,1,16.305,132.691Z"
      transform="translate(0 -117.531)" />
    <path d="M240.679,2.944a.679.679,0,0,0,.679-.679V.679a.679.679,0,1,0-1.359,0V2.265A.679.679,0,0,0,240.679,2.944Z"
      transform="translate(-229.13)"/>
    <path d="M337.272,24.884a.679.679,0,0,0,.927-.254l.9-1.585a.679.679,0,1,0-1.18-.673l-.9,1.585A.679.679,0,0,0,337.272,24.884Z"
      transform="translate(-321.669 -21.031)" />
    <path d="M124.1,24.631a.679.679,0,1,0,1.18-.673l-.9-1.585a.679.679,0,1,0-1.18.673Z"
      transform="translate(-117.529 -21.031)" />
  </g>
</svg>