<svg viewBox="0 0 23.701 23.701">
  <path d="M20.509,0H3.2A3.194,3.194,0,0,0,0,3.194V20.507A3.194,3.194,0,0,0,3.2,23.7h8.539l.015-8.469h-2.2a.519.519,0,0,1-.519-.517l-.011-2.73a.519.519,0,0,1,.519-.521h2.2V8.825c0-3.061,1.87-4.728,4.6-4.728h2.241a.519.519,0,0,1,.519.519v2.3a.519.519,0,0,1-.519.519H17.2c-1.485,0-1.773.706-1.773,1.741v2.284h3.263a.519.519,0,0,1,.516.58l-.324,2.73a.519.519,0,0,1-.516.458H15.443L15.428,23.7h5.081A3.194,3.194,0,0,0,23.7,20.507V3.194A3.194,3.194,0,0,0,20.509,0Z" transform="translate(-0.002)"></path>
</svg>
