<svg>
  <path d="M268.112,184.622a.971.971,0,0,0,1.232-.608,1.714,1.714,0,0,1,2.169-1.069,3.659,3.659,0,0,0,4.634-2.286.972.972,0,1,0-1.84-.625,1.712,1.712,0,0,1-2.169,1.069,3.664,3.664,0,0,0-4.634,2.286A.974.974,0,0,0,268.112,184.622Zm0,0" transform="translate(-238.606 -160.027)"></path>
  <path d="M289.432,121.82a.971.971,0,0,0,1.232-.608,1.708,1.708,0,0,1,2.169-1.069,3.659,3.659,0,0,0,4.634-2.287.972.972,0,1,0-1.84-.625,1.71,1.71,0,0,1-2.169,1.07,3.652,3.652,0,0,0-4.634,2.286A.971.971,0,0,0,289.432,121.82Zm0,0" transform="translate(-257.626 -103.997)"></path>
  <path d="M310.738,63.68a.973.973,0,0,0,1.233-.609,1.265,1.265,0,0,1,1.6-.79,3.2,3.2,0,0,0,4.068-2.005.972.972,0,1,0-1.841-.625,1.26,1.26,0,0,1-1.6.788,3.215,3.215,0,0,0-4.067,2.006.974.974,0,0,0,.608,1.234Zm0,0" transform="translate(-276.635 -52.628)"></path>
  <path d="M41.143,24.523a1.265,1.265,0,0,0-.554-.207A68.407,68.407,0,0,0,43.731,6.038,6.539,6.539,0,0,0,41.064.6a3.984,3.984,0,0,0-4.15-.045c-2.9,1.5-4.979,5.9-6.646,9.444l-.284.6a5.629,5.629,0,0,0-3.08-3.9,4.635,4.635,0,0,0-3.6-3.583,3.031,3.031,0,0,0-.074-.3A3.351,3.351,0,0,0,20.45.446a3.3,3.3,0,0,0-2.065.425A3.526,3.526,0,0,0,16.666.423a3.581,3.581,0,0,0-3.48,2.756A4.377,4.377,0,0,0,9.969,7.349a4.867,4.867,0,0,0-3.314,6.471,3.819,3.819,0,0,0-.85,2.408,3.778,3.778,0,0,0,.317,1.52,5.163,5.163,0,0,0-3.871-1.869.972.972,0,0,0,.029,1.944c.033,0,.063,0,.094,0a3.375,3.375,0,0,1,2.373,1.3c-1.541.444-3.4,1.167-4.266,2.8a4.948,4.948,0,0,0-.235,3.582A1.688,1.688,0,0,0,0,26.461L1.657,49.967a5.535,5.535,0,0,0,5.531,5.255h27.28A5.53,5.53,0,0,0,40,49.985l1.7-24.323c0-.005,0-.011,0-.017a1.261,1.261,0,0,0-.55-1.122ZM30.778,13.379c.385-.718.8-1.609,1.249-2.552,1.461-3.1,3.463-7.35,5.779-8.545a2.117,2.117,0,0,1,2.226-.037,4.693,4.693,0,0,1,1.757,3.743,66.568,66.568,0,0,1-3.12,17.973c-.063.2-.2.613-.4,1.176l-1.656.736a.959.959,0,0,0-.1.055,2.985,2.985,0,0,1-3.1,0l-.693-.416a5.017,5.017,0,0,0-2.583-.717l-.033,0a5.008,5.008,0,0,0-2.616.715l-.692.416a3.05,3.05,0,0,1-1.244.393c.024-.084.053-.167.078-.251.266-.9.552-1.8.851-2.682.114-.337.233-.671.351-1,.25-.7.511-1.4.782-2.085.12-.308.238-.619.362-.924a64.936,64.936,0,0,1,2.812-5.994ZM18.389,15.684c.113-.146.224-.287.329-.426a.005.005,0,0,1,0,0,2.4,2.4,0,0,0,.2-.314,2.081,2.081,0,0,0,.185-1.449l4.056-.887a2.226,2.226,0,0,0,.1.362,2.181,2.181,0,0,0,.958,1.074c.148.082.3.163.462.248.131.069.262.141.394.213.063.034.127.068.19.1.116.065.228.137.34.208.1.059.192.12.285.186s.211.157.314.241.177.155.262.237a3.9,3.9,0,0,1,.268.284,3.339,3.339,0,0,1,.411.587c-.412.91-.8,1.838-1.175,2.773-.059.145-.12.286-.178.431a9.92,9.92,0,0,0-3.365,1.68,5.72,5.72,0,0,1-4.759,1.156l-.59-2.7c-.4-1.826.468-2.932,1.306-4Zm4.819-5.9a.421.421,0,0,1,.076-.008.409.409,0,0,1,.4.316.405.405,0,0,1-.306.478l-5.368,1.175a.4.4,0,0,1-.171-.785l2.852-.624ZM20.068,24.813c-.074.005-.149.007-.222.015a4.989,4.989,0,0,0-1.549.411l-.186-.85c.28.023.559.047.82.047a7.515,7.515,0,0,0,4.628-1.62,11.881,11.881,0,0,1,1.347-.838c-.089.254-.178.506-.264.761-.062.182-.129.362-.19.546q-.428,1.3-.811,2.616l-.646-.387a5.014,5.014,0,0,0-2.583-.717l-.036,0c-.1,0-.205.01-.307.016ZM8.444,14.764l.637-.525-.413-.712a2.922,2.922,0,0,1,2.412-4.388l1.18-.05-.275-1.149a2.394,2.394,0,0,1,2.155-2.963l.9-.068V3.943a1.632,1.632,0,0,1,1.63-1.576,1.606,1.606,0,0,1,1.086.426l.681.615.653-.645a1.376,1.376,0,0,1,1.134-.385,1.4,1.4,0,0,1,1.143.99,1.272,1.272,0,0,1,.046.516L21.3,4.968H22.39a2.676,2.676,0,0,1,2.661,2.485l.044.639.6.211a3.7,3.7,0,0,1,2.484,3.579,3.507,3.507,0,0,1-.638,1.929,10.284,10.284,0,0,0-1.94-1.234c-.153-.081-.3-.158-.449-.241a.212.212,0,0,1-.11-.166.554.554,0,0,1,.135-.431,2.087,2.087,0,0,0,.457-1.795l-.118-.535a2.072,2.072,0,0,0-2.466-1.581l-.261.057h-.008l-2.852.624-2.783.608a2.075,2.075,0,0,0-1.581,2.466l.058.264v0s0,0,0,0l.057.263a2.067,2.067,0,0,0,1.2,1.455.588.588,0,0,1,.322.314c.025.072.011.109-.046.2h0c-.1.129-.2.26-.306.4s-.218.279-.331.427c-.038.049-.074.1-.112.151-.081.11-.161.222-.241.338-.044.063-.086.128-.128.195-.074.114-.145.231-.215.352-.04.07-.08.139-.119.211-.073.136-.139.279-.2.425-.028.062-.058.121-.083.187a5.327,5.327,0,0,0-.222.667c-.01.037-.013.077-.022.115a5.305,5.305,0,0,0-.109.617c-.009.086-.011.175-.017.263-.008.115-.022.224-.022.343l-.012-.014c-.013-.018-.027-.033-.04-.051-.169-.223-.338-.428-.508-.622-.054-.061-.108-.12-.162-.179q-.214-.231-.43-.435c-.046-.044-.093-.091-.141-.134a6.739,6.739,0,0,0-.548-.443c-.051-.037-.1-.068-.155-.1-.138-.093-.276-.178-.416-.254-.068-.037-.135-.073-.2-.106a4.324,4.324,0,0,0-.437-.184c-.048-.017-.1-.041-.146-.056a3.994,3.994,0,0,0-.481-.121c-.019,0-.037,0-.056,0s-.065-.019-.1-.024c-.113-.016-.22-.01-.331-.018-.078,0-.154-.021-.232-.021-.023,0-.048.006-.072.006a3.946,3.946,0,0,0-.443.037c-.073.01-.146.016-.219.029a4.571,4.571,0,0,0-.561.142c-.028.009-.056.016-.084.025a6.1,6.1,0,0,0-1.372.677,1.851,1.851,0,0,1-.135-.7,1.894,1.894,0,0,1,.694-1.464ZM2.2,22.833c.411-.774,1.409-1.365,3.142-1.861a5.246,5.246,0,0,0,2.173-1.247c.277-.265.536-.49.787-.693a4.323,4.323,0,0,1,2.07-1.062l.041,0a1.974,1.974,0,0,1,.563.016c.048.009.1.025.145.038a2.01,2.01,0,0,1,.27.081c.058.022.116.056.176.083.084.041.168.078.253.129.066.04.132.091.2.137s.158.106.237.17.148.131.222.2.148.128.222.2.164.179.247.271c.067.075.134.144.2.225.092.111.185.237.278.359.059.078.118.148.177.23.106.148.213.312.32.475.047.072.094.136.141.21q.232.366.466.779a7.382,7.382,0,0,1,.642,4.751c-.052-.005-.1-.013-.154-.021a3.015,3.015,0,0,1-1.052-.376l-.693-.416a5.014,5.014,0,0,0-2.583-.717l-.033,0a5.008,5.008,0,0,0-2.616.715l-.337.2a3.767,3.767,0,0,1-1.906.536,3.754,3.754,0,0,1-1.906-.536l-1.307-.785h0a1.66,1.66,0,0,0-.548-.207A2.793,2.793,0,0,1,2.2,22.833ZM38.061,49.867a3.593,3.593,0,0,1-3.59,3.411H7.19A3.6,3.6,0,0,1,3.6,49.848L1.982,26.872l.846.508a5.707,5.707,0,0,0,2.972.814,5.7,5.7,0,0,0,2.972-.814l.337-.2a2.977,2.977,0,0,1,3.1,0l.693.416a5,5,0,0,0,2.851.7c.087,0,.175,0,.263-.011.011,0,.021-.007.032-.008a4.991,4.991,0,0,0,1.915-.626.94.94,0,0,0,.169-.053l.693-.416a2.977,2.977,0,0,1,3.1,0l.693.416A5.022,5.022,0,0,0,25,28.3l.051,0a4.938,4.938,0,0,0,.849-.04c.161-.021.318-.061.476-.1.077-.018.154-.035.23-.057a4.976,4.976,0,0,0,1.248-.512l.693-.416a2.98,2.98,0,0,1,3.1,0l.693.416a5.018,5.018,0,0,0,2.6.713l.045,0a5.017,5.017,0,0,0,2.53-.684l1.907-.848a1,1,0,0,0,.108-.077l.149-.066Zm0,0" transform="translate(0 0)"></path>
</svg>