<svg viewBox="0 0 12.762 20.058">
  <path
    d="M14.915,39.945a5.738,5.738,0,0,1-2.081-.877,4.852,4.852,0,0,1-2.286-3.981,5.565,5.565,0,0,1,.607-2.822c.031-.069-.107-.092-.557-.092H10v-1.18h2.109l.329-.337a12.025,12.025,0,0,1,1.022-.867l.693-.529-2.076-.02L10,29.219v-1.1h5.973l.831-.561c1.662-1.121,2.3-1.768,2.641-2.669a3.578,3.578,0,0,0-.055-2.169c-.691-1.535-2.9-2-4.649-.977A7.148,7.148,0,0,0,11.989,25.6l-.173.6H11.5c-.253,0-.319-.026-.32-.129,0-.071.122-1.465.273-3.1L11.727,20l.3,0c.282,0,.307.022.461.351a.808.808,0,0,0,.921.566c.167-.028.7-.182,1.2-.343s1.158-.356,1.483-.434a4.7,4.7,0,0,1,5.759,3.442,6.8,6.8,0,0,1-.005,2.5,5.966,5.966,0,0,1-.7,1.593,2.227,2.227,0,0,0-.217.387,1.619,1.619,0,0,0,.553.049h.553v1.107h-2.3l-1.295.867-1.295.867,2.446.019,2.446.019v1.178h-6.75l-.628.645a3.89,3.89,0,0,0-1.307,3.145,2.693,2.693,0,0,0,.935,2.044,2.632,2.632,0,0,0,2.082.934c2.357.129,4.533-1.643,5.6-4.556l.2-.553.3-.023c.2-.015.3.007.3.068,0,.132-.737,5.825-.78,6.026-.032.149-.074.167-.343.148s-.312-.043-.37-.281a.726.726,0,0,0-.747-.59,11.344,11.344,0,0,0-1.622.366c-.72.2-1.5.4-1.725.443A7.268,7.268,0,0,1,14.915,39.945Z"
    transform="translate(-10 -20)" />
</svg>