<svg viewBox="0 0 24.539 24.539">
  <g transform="translate(-0.001 0)">
    <g transform="translate(0.001 0)">
      <path d="M22.227,2.312a7.9,7.9,0,0,0-13.11,8.026L.212,19.244A.718.718,0,0,0,0,19.753V23.82a.719.719,0,0,0,.719.719H4.787a.718.718,0,0,0,.508-.211l1.017-1.017a.719.719,0,0,0,.206-.591l-.126-1.092L7.9,21.485a.718.718,0,0,0,.648-.648L8.7,19.323l1.092.127a.707.707,0,0,0,.561-.177.721.721,0,0,0,.241-.537V17.4H11.9a.718.718,0,0,0,.508-.211l1.844-1.819A7.786,7.786,0,0,0,22.227,13.5,7.917,7.917,0,0,0,22.227,2.312ZM20.194,7.4a2.157,2.157,0,1,1,0-3.05A2.159,2.159,0,0,1,20.194,7.4Z" transform="translate(-0.001 0)"></path>
    </g>
  </g>
</svg>