<svg viewBox="0 0 19.933 26.577">
  <g transform="translate(0)">
    <path
      d="M83.379,9.966H81.718V7.752a7.752,7.752,0,1,0-15.5,0V9.966H64.554A.553.553,0,0,0,64,10.52V24.362a2.217,2.217,0,0,0,2.215,2.215h15.5a2.217,2.217,0,0,0,2.215-2.215V10.52A.553.553,0,0,0,83.379,9.966ZM75.624,21.533a.554.554,0,0,1-.55.615H72.859a.554.554,0,0,1-.55-.615l.349-3.141a2.191,2.191,0,0,1-.906-1.781,2.215,2.215,0,1,1,4.429,0,2.191,2.191,0,0,1-.906,1.781ZM78.4,9.966H69.537V7.752a4.429,4.429,0,0,1,8.859,0Z"
      transform="translate(-64)" />
  </g>
</svg>