<svg viewBox="0 0 99.999 99.995">
  <path d="M94.735,61.066a1.948,1.948,0,1,0-.877,3.8,26.614,26.614,0,1,1-14.378.647,1.948,1.948,0,1,0-1.218-3.7,30.205,30.205,0,0,0-12.028,7.413,30.534,30.534,0,1,0,28.5-8.155Zm0,0" transform="translate(-46.112 -49.099)"/>
  <path d="M97.346,84.512,76.93,64.1A41.693,41.693,0,1,0,64.1,76.93L84.512,97.346A9.075,9.075,0,1,0,97.346,84.512ZM94.591,94.591a5.2,5.2,0,0,1-7.323,0L65.724,73.047a1.949,1.949,0,0,0-2.488-.224,37.823,37.823,0,0,1-48.262-57.85,37.823,37.823,0,0,1,57.85,48.262,1.947,1.947,0,0,0,.224,2.488L94.591,87.267A5.185,5.185,0,0,1,94.591,94.591Zm0,0"/>
  <path d="M174.543,151.021a1.948,1.948,0,0,0-2.755,0l-9.006,9.006-9.006-9.006a1.948,1.948,0,0,0-2.755,2.755l9.006,9.006-9.006,9.006a1.948,1.948,0,1,0,2.755,2.755l9.006-9.006,9.006,9.006a1.948,1.948,0,1,0,2.756-2.755l-9.006-9.006,9.006-9.006A1.948,1.948,0,0,0,174.543,151.021Zm0,0" transform="translate(-121.066 -121.066)"/>
  <path d="M198.949,61.275A1.948,1.948,0,1,0,197,59.327,1.952,1.952,0,0,0,198.949,61.275Zm0,0" transform="translate(-158.524 -46.172)"/>
</svg>
