<svg viewBox="0 0 22.5 22.5">
  <path d="M11.156,21H9.844a1.314,1.314,0,0,1-1.312-1.312l-.158-1.1a1.311,1.311,0,0,0-2.087-.865l-.89.669a1.313,1.313,0,0,1-1.856,0l-.928-.928a1.315,1.315,0,0,1,0-1.856l.669-.891a1.312,1.312,0,0,0-.865-2.086l-1.1-.158A1.314,1.314,0,0,1,0,11.156V9.844A1.314,1.314,0,0,1,1.313,8.531l1.1-.158A1.313,1.313,0,0,0,3.28,6.286L2.611,5.4a1.315,1.315,0,0,1,0-1.856l.928-.928a1.313,1.313,0,0,1,1.856,0l.89.669a1.311,1.311,0,0,0,2.087-.865l.158-1.1A1.314,1.314,0,0,1,9.844,0h1.313a1.314,1.314,0,0,1,1.312,1.313l.158,1.1a1.31,1.31,0,0,0,2.086.865l.891-.669a1.313,1.313,0,0,1,1.856,0l.928.928a1.315,1.315,0,0,1,0,1.856l-.669.89a1.313,1.313,0,0,0,.865,2.087l1.1.158A1.314,1.314,0,0,1,21,9.844v1.313a1.314,1.314,0,0,1-1.312,1.312l-1.1.158a1.312,1.312,0,0,0-.865,2.086l.669.891a1.315,1.315,0,0,1,0,1.856l-.928.928a1.313,1.313,0,0,1-1.856,0l-.891-.669a1.31,1.31,0,0,0-2.086.865l-.158,1.1A1.314,1.314,0,0,1,11.156,21ZM10.5,7.875A2.625,2.625,0,1,0,13.125,10.5,2.628,2.628,0,0,0,10.5,7.875Z" transform="translate(0.75 0.75)"></path>
</svg>