<svg viewBox="0 0 26.66 24.502">
  <g transform="translate(0 -19.641)">
    <g transform="translate(0 19.641)">
      <g transform="translate(0 0)">
        <path d="M99.236,95.645h-4.87A1.354,1.354,0,0,0,93.012,97v3.516H89.5a1.354,1.354,0,0,0-1.355,1.354v3.516H84.624a1.355,1.355,0,0,0-1.355,1.354v3.686H79.585a1.354,1.354,0,0,0-1.355,1.354v2.834a1.354,1.354,0,0,0,1.355,1.355H99.236a1.354,1.354,0,0,0,1.355-1.355V97A1.354,1.354,0,0,0,99.236,95.645Z" transform="translate(-73.931 -91.468)"></path>
        <path d="M18.176,19.914A.9.9,0,0,0,16.9,19.9C11.106,25.541,5.594,31.053.265,36.382A.9.9,0,0,0,0,37.021V43.2a.9.9,0,1,0,1.806,0V37.4c5.243-5.244,10.664-10.662,16.353-16.2A.9.9,0,0,0,18.176,19.914Z" transform="translate(0 -19.641)"></path>
      </g>
    </g>
  </g>
</svg>