<svg viewBox="0 0 24 24">
  <g transform="translate(-11 -178)">
    <path data-path="1" d="M12,24A12,12,0,1,0,0,12,12,12,0,0,0,12,24Z" transform="translate(11 178)"/>
    <g transform="translate(-33.805 183.431)">
      <g transform="translate(52.016)">
        <path d="M74.472,108.534a.644.644,0,0,0,.644.617H81.13a.644.644,0,0,0,.644-.617l.429-9.066h-8.16Zm5.011-6.815a.262.262,0,0,1,.262-.262h.419a.262.262,0,0,1,.262.262v5.18a.262.262,0,0,1-.262.262h-.419a.262.262,0,0,1-.262-.262Zm-1.831,0a.262.262,0,0,1,.262-.262h.419a.262.262,0,0,1,.262.262v5.18a.262.262,0,0,1-.262.262h-.419a.262.262,0,0,1-.262-.262v-5.18Zm-1.831,0a.262.262,0,0,1,.262-.262H76.5a.262.262,0,0,1,.262.262v5.18a.262.262,0,0,1-.262.262h-.419a.262.262,0,0,1-.262-.262Z" transform="translate(-73.353 -96.351)"/>
        <path d="M61.153.659H58.378V.135A.135.135,0,0,0,58.243,0H55.33a.135.135,0,0,0-.135.135V.659H52.42a.4.4,0,0,0-.4.4v1.27h9.541V1.064A.4.4,0,0,0,61.153.659Z" transform="translate(-52.016 0)"/>
      </g>
    </g>
  </g>
</svg>
